<svg xmlns="http://www.w3.org/2000/svg" viewBox="0 0 64 64">
  <rect width="64" height="64" rx="10" fill="#1b1f2a"/>
  <g transform="translate(8 22)">
    <g transform="rotate(-10 14 10)">
      <rect x="0" y="0" width="24" height="20" rx="3" fill="#4c8bf5"/>
      <rect x="4" y="4" width="5" height="5" rx="1" fill="#fff"/>
      <rect x="11" y="4" width="5" height="5" rx="1" fill="#fff"/>
      <rect x="4" y="11" width="5" height="5" rx="1" fill="#fff"/>
      <rect x="11" y="11" width="5" height="5" rx="1" fill="#fff"/>
    </g>
    <g transform="translate(24 0) rotate(10 10 10)">
      <rect x="0" y="0" width="24" height="20" rx="3" fill="#f59e4c"/>
      <rect x="4" y="4" width="5" height="5" rx="1" fill="#fff"/>
      <rect x="11" y="4" width="5" height="5" rx="1" fill="#fff"/>
      <rect x="4" y="11" width="5" height="5" rx="1" fill="#fff"/>
      <rect x="11" y="11" width="5" height="5" rx="1" fill="#fff"/>
    </g>
  </g>
</svg>
